<svg width="128" height="64" viewBox="0 0 128 64" fill="none" xmlns="http://www.w3.org/2000/svg">
<path d="M38.0649 21.1532V29.2586L35.2794 27.649C35.1689 27.5854 35.0772 27.4938 35.0133 27.3834C34.9495 27.273 34.9159 27.1478 34.9159 27.0203V21.1532C34.9162 20.8769 34.8435 20.6054 34.7053 20.3662C34.5671 20.1269 34.3682 19.9284 34.1287 19.7906L23.8132 13.8337C23.574 13.6957 23.3027 13.6231 23.0266 13.6231C22.7505 13.6231 22.4793 13.6957 22.2401 13.8337L14.9781 18.014C14.9218 18.0442 14.8751 18.0895 14.8431 18.1448C14.8111 18.2001 14.7952 18.2631 14.7971 18.327C14.795 18.3914 14.8109 18.4551 14.8428 18.5111C14.8748 18.567 14.9216 18.6131 14.9781 18.6441L22.8266 23.1753C22.9371 23.2389 23.0289 23.3305 23.0927 23.4409C23.1565 23.5513 23.1901 23.6765 23.1901 23.804V26.8912C23.1901 26.904 23.1867 26.9166 23.1803 26.9277C23.1739 26.9388 23.1647 26.948 23.1536 26.9544C23.1425 26.9608 23.1299 26.9641 23.1171 26.9641C23.1043 26.9641 23.0917 26.9608 23.0806 26.9544L13.398 21.3665C12.8627 21.0591 12.418 20.616 12.1088 20.0818C11.7996 19.5477 11.6367 18.9414 11.6367 18.3242C11.6367 17.7069 11.7996 17.1007 12.1088 16.5665C12.418 16.0323 12.8627 15.5892 13.398 15.2818L20.66 11.1015C21.3781 10.6894 22.1916 10.4727 23.0196 10.4727C23.8475 10.4727 24.6611 10.6894 25.3792 11.1015L35.6948 17.0584C36.4141 17.4732 37.0118 18.0699 37.4278 18.7886C37.8438 19.5073 38.0635 20.3228 38.0649 21.1532Z" fill="#1E0DFF"/>
<path d="M28.3331 29.9939C28.1307 29.8768 27.9009 29.8151 27.667 29.8151C27.4331 29.815 27.2034 29.8765 27.0008 29.9934C26.7982 30.1103 26.6301 30.2786 26.5131 30.4811C26.3962 30.6837 26.3348 30.9135 26.3349 31.1474V49.3592C26.3348 49.423 26.3514 49.4857 26.3832 49.541C26.415 49.5962 26.4608 49.6422 26.516 49.6742C26.5712 49.7062 26.6338 49.7231 26.6976 49.7232C26.7613 49.7234 26.824 49.7067 26.8793 49.6749L34.1287 45.4889C34.3678 45.3504 34.5664 45.1515 34.7045 44.9121C34.8427 44.6728 34.9156 44.4013 34.9159 44.125V36.6174C34.9159 36.6046 34.9193 36.592 34.9257 36.5809C34.9321 36.5698 34.9414 36.5606 34.9524 36.5542C34.9635 36.5478 34.9761 36.5445 34.9889 36.5445C35.0017 36.5445 35.0143 36.5478 35.0254 36.5542L37.7015 38.0978C37.8119 38.1619 37.9035 38.2538 37.9673 38.3644C38.0311 38.4749 38.0647 38.6003 38.0649 38.7279V44.1264C38.0633 44.9552 37.8444 45.7691 37.43 46.4869C37.0156 47.2046 36.4202 47.8012 35.7032 48.2169L28.4538 52.4029C27.9109 52.7203 27.2921 52.8846 26.6633 52.8785C26.0344 52.8723 25.419 52.6958 24.8825 52.3678C24.3575 52.0411 23.9256 51.5846 23.6284 51.0424C23.3313 50.5001 23.1788 49.8905 23.1859 49.2722V31.1432C23.1863 30.3572 23.3934 29.5851 23.7866 28.9045C24.1797 28.2239 24.7449 27.6587 25.4255 27.2655C26.1061 26.8724 26.8781 26.6652 27.6641 26.6648C28.4501 26.6644 29.2224 26.8707 29.9034 27.2631L43.4746 35.099C43.714 35.2369 43.9855 35.3095 44.2618 35.3095C44.5381 35.3095 44.8096 35.2369 45.049 35.099L52.2984 30.913C52.3538 30.8812 52.3998 30.8353 52.4318 30.78C52.4638 30.7247 52.4806 30.6619 52.4806 30.598C52.4806 30.5341 52.4638 30.4713 52.4318 30.416C52.3998 30.3607 52.3538 30.3148 52.2984 30.283L41.0062 23.7647C40.8958 23.7006 40.8041 23.6087 40.7404 23.4982C40.6766 23.3876 40.6429 23.2623 40.6427 23.1346V20.0474C40.6427 20.0346 40.6461 20.022 40.6525 20.0109C40.6589 19.9998 40.6682 19.9906 40.6792 19.9842C40.6903 19.9778 40.7029 19.9745 40.7157 19.9745C40.7285 19.9745 40.7411 19.9778 40.7522 19.9843L53.8729 27.562C54.4075 27.8695 54.8516 28.3126 55.1603 28.8464C55.4691 29.3803 55.6317 29.9862 55.6317 30.6029C55.6317 31.2196 55.4691 31.8255 55.1603 32.3594C54.8516 32.8932 54.4075 33.3363 53.8729 33.6438L46.6235 37.8312C45.905 38.2443 45.0906 38.4617 44.2618 38.4617C43.433 38.4617 42.6186 38.2443 41.9001 37.8312L28.3331 29.9939Z" fill="#1E0DFF"/>
<path d="M69.0312 38.9468V30.6955C69.0312 30.6296 69.005 30.5665 68.9584 30.5199C68.9118 30.4733 68.8487 30.4471 68.7828 30.4471H66.4267V27.8412C66.4263 27.7769 66.451 27.715 66.4955 27.6686C66.5401 27.6222 66.601 27.5951 66.6652 27.5929C68.7561 27.5367 69.2178 26.7228 69.2178 24.9266V23.3171C69.2178 23.251 69.2439 23.1877 69.2905 23.1409C69.337 23.0941 69.4002 23.0676 69.4662 23.0673H72.4426C72.5086 23.0676 72.5717 23.0941 72.6183 23.1409C72.6648 23.1877 72.6909 23.251 72.6909 23.3171V27.0063C72.6909 27.0389 72.6974 27.0712 72.7099 27.1013C72.7223 27.1315 72.7406 27.1589 72.7637 27.1819C72.7868 27.205 72.8141 27.2233 72.8443 27.2358C72.8744 27.2482 72.9067 27.2547 72.9393 27.2547H76.7534C76.8193 27.2547 76.8825 27.2808 76.9291 27.3274C76.9757 27.374 77.0018 27.4372 77.0018 27.503V30.2002C77.0018 30.266 76.9757 30.3292 76.9291 30.3758C76.8825 30.4224 76.8193 30.4485 76.7534 30.4485H72.9393C72.8734 30.4485 72.8103 30.4747 72.7637 30.5213C72.7171 30.5679 72.6909 30.631 72.6909 30.6969V38.0165C72.6909 40.0624 73.5329 40.5901 75.9185 40.5901C76.23 40.5901 76.5416 40.5901 76.9611 40.5718C76.9948 40.5703 77.0283 40.5756 77.0599 40.5874C77.0914 40.5992 77.1202 40.6172 77.1446 40.6404C77.1689 40.6636 77.1884 40.6915 77.2017 40.7224C77.215 40.7533 77.222 40.7866 77.2221 40.8202V43.4977C77.2218 43.5597 77.1985 43.6193 77.1568 43.6652C77.1151 43.711 77.0579 43.7398 76.9962 43.7461C76.2328 43.8204 75.614 43.8471 75.0204 43.8471C70.5201 43.8471 69.0312 42.1407 69.0312 38.9468Z" fill="#18171B"/>
<path d="M80.3206 19.966H83.8288C83.8948 19.966 83.9581 19.9921 84.0049 20.0387C84.0518 20.0852 84.0782 20.1484 84.0786 20.2144V23.4083C84.0782 23.4743 84.0518 23.5374 84.0049 23.584C83.9581 23.6305 83.8948 23.6566 83.8288 23.6566H80.3206C80.2547 23.6566 80.1915 23.6305 80.145 23.5839C80.0984 23.5373 80.0722 23.4741 80.0722 23.4083V20.2144C80.0722 20.1485 80.0984 20.0853 80.145 20.0388C80.1915 19.9922 80.2547 19.966 80.3206 19.966ZM80.5058 27.2547H83.6688C83.7347 27.2547 83.7979 27.2808 83.8445 27.3274C83.8911 27.374 83.9172 27.4372 83.9172 27.503V43.2886C83.9172 43.3545 83.8911 43.4176 83.8445 43.4642C83.7979 43.5108 83.7347 43.537 83.6688 43.537H80.5058C80.44 43.537 80.3768 43.5108 80.3302 43.4642C80.2836 43.4176 80.2575 43.3545 80.2575 43.2886V27.503C80.2575 27.4372 80.2836 27.374 80.3302 27.3274C80.3768 27.2808 80.44 27.2547 80.5058 27.2547Z" fill="#18171B"/>
<path d="M87.7327 19.966H90.8943C90.9602 19.966 91.0234 19.9922 91.07 20.0388C91.1166 20.0853 91.1427 20.1485 91.1427 20.2144V43.2886C91.1427 43.3545 91.1166 43.4176 91.07 43.4642C91.0234 43.5108 90.9602 43.537 90.8943 43.537H87.7327C87.6667 43.537 87.6034 43.5108 87.5566 43.4643C87.5098 43.4178 87.4833 43.3546 87.483 43.2886V20.2144C87.4833 20.1484 87.5098 20.0852 87.5566 20.0387C87.6034 19.9921 87.6667 19.966 87.7327 19.966Z" fill="#18171B"/>
<path d="M94.7716 19.966H97.9332C97.9992 19.966 98.0625 19.9921 98.1093 20.0387C98.1561 20.0852 98.1826 20.1484 98.183 20.2144V43.2886C98.1826 43.3546 98.1561 43.4178 98.1093 43.4643C98.0625 43.5108 97.9992 43.537 97.9332 43.537H94.7716C94.7057 43.537 94.6426 43.5108 94.596 43.4642C94.5494 43.4176 94.5232 43.3545 94.5232 43.2886V20.2144C94.5232 20.1485 94.5494 20.0853 94.596 20.0388C94.6426 19.9922 94.7057 19.966 94.7716 19.966Z" fill="#18171B"/>
<path d="M100.57 38.9749C100.57 37.4551 100.851 36.2146 102.338 35.2534C103.983 34.229 105.752 33.6087 111.614 33.6087H112.388C112.454 33.6087 112.517 33.5826 112.564 33.536C112.611 33.4894 112.637 33.4262 112.637 33.3604V32.7443C112.637 30.92 111.768 29.7048 108.605 29.7048C105.416 29.7048 104.881 30.8429 104.749 31.8771C104.741 31.9369 104.712 31.9918 104.667 32.0316C104.622 32.0714 104.564 32.0933 104.503 32.0932H101.416C101.383 32.0934 101.349 32.0868 101.318 32.0737C101.287 32.0606 101.259 32.0413 101.236 32.017C101.213 31.9926 101.195 31.9638 101.183 31.9323C101.171 31.9008 101.166 31.8672 101.168 31.8336C101.295 29.448 102.439 26.7818 108.664 26.7818C113.409 26.7818 116.356 28.4573 116.356 33.822V43.2816C116.356 43.3474 116.329 43.4106 116.283 43.4572C116.236 43.5038 116.173 43.5299 116.107 43.5299H113.288C113.222 43.5299 113.159 43.5038 113.112 43.4572C113.066 43.4106 113.04 43.3474 113.04 43.2816V42.3568L113.009 41.4896C111.645 42.9785 109.813 43.8752 106.897 43.8752C101.843 43.878 100.57 41.3605 100.57 38.9749ZM112.697 37.7372V36.4349C112.697 36.3691 112.671 36.3059 112.624 36.2593C112.578 36.2127 112.515 36.1866 112.449 36.1866H111.457C106.836 36.1866 103.764 36.4672 103.764 38.8851C103.764 40.3108 105.128 40.9311 107.734 40.9311C111.643 40.9311 112.697 38.8233 112.697 37.7372Z" fill="#18171B"/>
</svg>
